<svg width="100%" viewBox="0 0 295 752" fill="none" xmlns="http://www.w3.org/2000/svg">
<ellipse cx="65.25" cy="26" rx="2.25" ry="2" fill="white"/>
<ellipse cx="82.375" cy="51" rx="3.375" ry="3" fill="white"/>
<ellipse cx="23.25" cy="116" rx="2.25" ry="2" fill="white"/>
<ellipse cx="70.375" cy="105.222" rx="1.375" ry="1.22222" fill="white"/>
<ellipse cx="155.25" cy="56" rx="2.25" ry="2" fill="white"/>
<ellipse cx="152.375" cy="111" rx="3.375" ry="3" fill="white"/>
<ellipse cx="113.25" cy="176" rx="2.25" ry="2" fill="white"/>
<ellipse cx="160.375" cy="135.222" rx="1.375" ry="1.22222" fill="white"/>
<ellipse cx="131.577" cy="236.651" rx="2.25" ry="2" transform="rotate(-49.1078 131.577 236.651)" fill="white"/>
<ellipse cx="241.686" cy="350.072" rx="3.375" ry="3" transform="rotate(-49.1078 241.686 350.072)" fill="white"/>
<ellipse cx="172.117" cy="327.318" rx="2.25" ry="2" transform="rotate(-49.1078 172.117 327.318)" fill="white"/>
<ellipse cx="194.819" cy="284.639" rx="1.375" ry="1.22222" transform="rotate(-49.1078 194.819 284.639)" fill="white"/>
<ellipse cx="213.173" cy="168.255" rx="2.25" ry="2" transform="rotate(-49.1078 213.173 168.255)" fill="white"/>
<ellipse cx="252.867" cy="226.434" rx="3.375" ry="3" transform="rotate(-49.1078 252.867 226.434)" fill="white"/>
<ellipse cx="276.391" cy="298.562" rx="2.25" ry="2" transform="rotate(-49.1078 276.391 298.562)" fill="white"/>
<ellipse cx="276.415" cy="236.243" rx="1.375" ry="1.22222" transform="rotate(-49.1078 276.415 236.243)" fill="white"/>
<ellipse cx="272.88" cy="64.7499" rx="2.25" ry="2" transform="rotate(79.0629 272.88 64.7499)" fill="white"/>
<ellipse cx="251.584" cy="86.3071" rx="3.375" ry="3" transform="rotate(79.0629 251.584 86.3071)" fill="white"/>
<ellipse cx="176.546" cy="40.5886" rx="2.25" ry="2" transform="rotate(79.0629 176.546 40.5886)" fill="white"/>
<ellipse cx="196.07" cy="84.8127" rx="1.375" ry="1.22222" transform="rotate(79.0629 196.07 84.8127)" fill="white"/>
<ellipse cx="260.501" cy="158.807" rx="2.25" ry="2" transform="rotate(79.0629 260.501 158.807)" fill="white"/>
<ellipse cx="205.955" cy="136.42" rx="3.375" ry="3" transform="rotate(79.0629 205.955 136.42)" fill="white"/>
<ellipse cx="134.712" cy="140.338" rx="2.25" ry="2" transform="rotate(79.0629 134.712 140.338)" fill="white"/>
<ellipse cx="183.69" cy="198.87" rx="1.375" ry="1.22222" transform="rotate(79.0629 183.69 198.87)" fill="white"/>
<ellipse cx="98.2766" cy="166.045" rx="2.25" ry="2" transform="rotate(29.9551 98.2766 166.045)" fill="white"/>
<ellipse cx="61.6309" cy="213.256" rx="3.375" ry="3" transform="rotate(29.9551 61.6309 213.256)" fill="white"/>
<ellipse cx="16.9481" cy="243.05" rx="2.25" ry="2" transform="rotate(29.9551 16.9481 243.05)" fill="white"/>
<ellipse cx="63.1596" cy="257.243" rx="1.375" ry="1.22222" transform="rotate(29.9551 63.1596 257.243)" fill="white"/>
<ellipse cx="161.274" cy="256.976" rx="2.25" ry="2" transform="rotate(29.9551 161.274 256.976)" fill="white"/>
<ellipse cx="131.321" cy="303.193" rx="3.375" ry="3" transform="rotate(29.9551 131.321 303.193)" fill="white"/>
<ellipse cx="64.9663" cy="339.974" rx="2.25" ry="2" transform="rotate(29.9551 64.9663 339.974)" fill="white"/>
<ellipse cx="126.157" cy="328.174" rx="1.375" ry="1.22222" transform="rotate(29.9551 126.157 328.174)" fill="white"/>
<ellipse cx="67.6667" cy="388.232" rx="2.33333" ry="2.17174" fill="white"/>
<ellipse cx="85.4259" cy="415.38" rx="3.5" ry="3.25762" fill="white"/>
<ellipse cx="24.1111" cy="485.961" rx="2.33333" ry="2.17174" fill="white"/>
<ellipse cx="72.9815" cy="474.258" rx="1.42593" ry="1.32718" fill="white"/>
<ellipse cx="161" cy="420.809" rx="2.33333" ry="2.17174" fill="white"/>
<ellipse cx="158.019" cy="480.532" rx="3.5" ry="3.25762" fill="white"/>
<ellipse cx="117.444" cy="551.114" rx="2.33333" ry="2.17174" fill="white"/>
<ellipse cx="166.315" cy="506.834" rx="1.42593" ry="1.32718" fill="white"/>
<ellipse rx="2.39674" ry="2.11648" transform="matrix(0.637319 -0.7706 0.740795 0.671731 136.45 616.973)" fill="white"/>
<ellipse rx="3.59511" ry="3.17472" transform="matrix(0.637319 -0.7706 0.740795 0.671731 250.637 740.133)" fill="white"/>
<ellipse rx="2.39674" ry="2.11648" transform="matrix(0.637319 -0.7706 0.740795 0.671731 178.492 715.426)" fill="white"/>
<ellipse rx="1.46467" ry="1.29341" transform="matrix(0.637319 -0.7706 0.740795 0.671731 202.035 669.081)" fill="white"/>
<ellipse rx="2.39674" ry="2.11648" transform="matrix(0.637319 -0.7706 0.740795 0.671731 221.068 542.704)" fill="white"/>
<ellipse rx="3.59511" ry="3.17472" transform="matrix(0.637319 -0.7706 0.740795 0.671731 262.233 605.878)" fill="white"/>
<ellipse rx="2.39674" ry="2.11648" transform="matrix(0.637319 -0.7706 0.740795 0.671731 286.628 684.2)" fill="white"/>
<ellipse rx="1.46467" ry="1.29341" transform="matrix(0.637319 -0.7706 0.740795 0.671731 286.653 616.53)" fill="white"/>
<ellipse rx="2.43934" ry="2.07767" transform="matrix(0.181486 0.983394 -0.980137 0.198322 282.987 430.31)" fill="white"/>
<ellipse rx="3.65902" ry="3.1165" transform="matrix(0.181486 0.983394 -0.980137 0.198322 260.902 453.719)" fill="white"/>
<ellipse rx="2.43934" ry="2.07767" transform="matrix(0.181486 0.983394 -0.980137 0.198322 183.085 404.074)" fill="white"/>
<ellipse rx="1.49071" ry="1.26969" transform="matrix(0.181486 0.983394 -0.980137 0.198322 203.331 452.096)" fill="white"/>
<ellipse rx="2.43934" ry="2.07767" transform="matrix(0.181486 0.983394 -0.980137 0.198322 270.149 532.444)" fill="white"/>
<ellipse rx="3.65902" ry="3.1165" transform="matrix(0.181486 0.983394 -0.980137 0.198322 213.583 508.134)" fill="white"/>
<ellipse rx="2.43934" ry="2.07767" transform="matrix(0.181486 0.983394 -0.980137 0.198322 139.701 512.389)" fill="white"/>
<ellipse rx="1.49071" ry="1.26969" transform="matrix(0.181486 0.983394 -0.980137 0.198322 190.494 575.947)" fill="white"/>
<ellipse rx="2.36121" ry="2.14781" transform="matrix(0.856189 0.516664 -0.48218 0.876072 101.916 540.303)" fill="white"/>
<ellipse rx="3.54181" ry="3.22171" transform="matrix(0.856189 0.516664 -0.48218 0.876072 63.9135 591.569)" fill="white"/>
<ellipse rx="2.36121" ry="2.14781" transform="matrix(0.856189 0.516664 -0.48218 0.876072 17.5759 623.922)" fill="white"/>
<ellipse rx="1.44296" ry="1.31255" transform="matrix(0.856189 0.516664 -0.48218 0.876072 65.4989 639.333)" fill="white"/>
<ellipse rx="2.36121" ry="2.14781" transform="matrix(0.856189 0.516664 -0.48218 0.876072 167.248 639.043)" fill="white"/>
<ellipse rx="3.54181" ry="3.22171" transform="matrix(0.856189 0.516664 -0.48218 0.876072 136.184 689.229)" fill="white"/>
<ellipse rx="2.36121" ry="2.14781" transform="matrix(0.856189 0.516664 -0.48218 0.876072 67.3725 729.169)" fill="white"/>
<ellipse rx="1.44296" ry="1.31255" transform="matrix(0.856189 0.516664 -0.48218 0.876072 130.83 716.356)" fill="white"/>
</svg>
